<?xml version="1.0" encoding="utf-8" ?><svg xmlns="http://www.w3.org/2000/svg" xmlns:xlink="http://www.w3.org/1999/xlink" width="1024" height="1024" viewBox="0 0 1024 1024"><title>Facet</title><path fill="#98D4CA" d="M511.692 899.262C484.034 899.745 460.532 884.786 437.769 871.209L406.56 852.855L322.167 803.199L248.084 759.434L221.029 743.698C209.622 737.064 198.855 731.627 189.474 722.127C177.207 709.648 168.898 693.823 165.591 676.639C163.278 664.569 163.989 647.793 164.001 635.157L163.992 578.906L163.98 369.561C164.135 343.803 171.242 322.315 189.961 303.823C200.048 293.859 215.505 285.592 227.851 278.327L270.872 253.093L367.075 196.022C393.545 180.378 420.038 164.633 446.549 149.065C471.156 134.616 483.183 126.093 513.334 126.57C525.93 126.251 543.024 129.873 554.298 135.511C572.996 144.862 591.941 156.821 609.948 167.563L700.038 220.868L777.384 266.39C790.118 273.782 824.796 292.233 833.793 302.45C862.345 331.869 861.242 354.422 861.053 392.456L860.849 440.068C860.878 495.56 861.159 551.069 860.882 606.559C860.823 618.545 859.934 632.028 860.494 643.679C861.951 673.99 857.748 699.961 834.544 721.826C823.226 732.492 811.542 738.563 798.133 746.546L763.666 767.004L669.913 822.538L588.287 871.018C559.326 887.885 547.498 898.472 511.692 899.262Z"/><path fill="#8279D5" d="M511.692 899.262C484.034 899.745 460.532 884.786 437.769 871.209L406.56 852.855L322.167 803.199L248.084 759.434L221.029 743.698C209.622 737.064 198.855 731.627 189.474 722.127C177.207 709.648 168.898 693.823 165.591 676.639C163.278 664.569 163.989 647.793 164.001 635.157L163.992 578.906L163.98 369.561C164.135 343.803 171.242 322.315 189.961 303.823C200.048 293.859 215.505 285.592 227.851 278.327L270.872 253.093L367.075 196.022C393.545 180.378 420.038 164.633 446.549 149.065C471.156 134.616 483.183 126.093 513.334 126.57C514.548 130.819 519.677 139.641 521.96 143.861L540.518 177.767L617.326 319.944L199.756 319.912L406.532 704.067L617.623 704.11L684.927 578.993C696.615 557.187 708.997 532.988 721.197 511.642C746.11 558.155 771.285 604.529 796.719 650.759C806.203 668.222 817.989 688.033 826.54 705.537L689.212 705.242C665.249 705.423 641.285 705.39 617.322 705.143C605.182 726.552 593.03 749.439 581.261 771.118L540.638 845.951C535.084 856.405 529.37 866.774 523.498 877.053C519.763 883.658 514.443 892.444 511.692 899.262Z"/><path fill="#F8E9B2" d="M513.334 126.57C525.93 126.251 543.024 129.873 554.298 135.511C572.996 144.862 591.941 156.821 609.948 167.563L700.038 220.868L777.384 266.39C790.118 273.782 824.796 292.233 833.793 302.45C830.209 307.06 823.561 320.146 820.522 325.821L798.836 366.115C772.616 414.333 746.708 462.719 721.115 511.272L641.492 364.35C636.038 354.311 630.639 344.242 625.294 334.145C623.818 331.38 618.957 321.95 617.326 319.944L540.518 177.767L521.96 143.861C519.677 139.641 514.548 130.819 513.334 126.57Z"/><path fill="#8279D5" d="M455.277 391.635C470.266 389.718 482.555 399.575 494.824 406.928L531.196 428.679L583.245 459.589C598.241 468.376 614.953 477.123 628.655 487.829C629.378 488.394 631.946 492.292 632.52 493.234C637.129 500.874 638.475 510.046 636.257 518.689C632.128 535.42 614.857 542.357 601.127 550.458L554.978 577.577L523.008 596.614C511.37 603.639 475.697 626.732 465.06 628.789C456.548 630.435 447.261 628.735 440.051 623.894C433.934 619.786 428.474 612.716 427.156 605.364C424.736 591.866 425.995 576.734 426.025 562.993L426.244 490.195C426.272 475.612 426.217 461.03 426.081 446.448C426.035 439.887 425.676 427.559 426.333 421.292C426.928 415.392 429.033 409.745 432.445 404.895C438.32 396.582 445.581 393.306 455.277 391.635Z"/><path fill="#B7DBD6" d="M836.909 352.373C840.01 353.561 840.777 356.321 841.346 359.365C843.729 372.139 844.33 385.613 844.392 398.551C844.552 431.663 844.487 464.767 844.391 497.869C844.396 512.346 844.222 526.822 843.871 541.294C843.594 552.117 843.448 563.007 841.413 573.69C840.482 578.576 839.412 580.67 836.035 584.154C831.076 579.939 829.776 577.215 826.544 571.589C826.461 571.446 826.377 571.302 826.294 571.158C820.019 559.916 815.251 547.898 812.112 535.412C810.091 527.296 809.119 519.184 808.05 510.849C803.214 473.138 804.406 431.395 813.885 394.49C816.812 383.093 824.746 364.884 832.573 355.354C833.346 354.413 835.752 353.035 836.909 352.373Z"/><path fill="#B7DBD6" d="M800.821 588.089C815.427 587.735 827.497 592.869 837.838 603.318C847.848 613.433 847.459 642 837.055 651.404C830.326 653.789 818.858 645.044 814.494 640.336C804.454 629.502 783.685 600.571 800.821 588.089Z"/></svg>